<?xml version="1.0" encoding="utf-8"?>
<!-- Generator: Adobe Illustrator 25.2.3, SVG Export Plug-In . SVG Version: 6.00 Build 0)  -->
<svg version="1.1" id="Capa_1" xmlns="http://www.w3.org/2000/svg" xmlns:xlink="http://www.w3.org/1999/xlink" x="0px" y="0px"
	 viewBox="0 0 100 100" style="enable-background:new 0 0 100 100;" xml:space="preserve">
<style type="text/css">
	.st0{fill:#E6E6E6;}
	.st1{fill:#333333;stroke:#333333;stroke-width:0.75;stroke-miterlimit:10;}
	.st2{display:none;}
	.st3{display:inline;fill:#FFFF00;}
	.st4{fill:#A2CCD4;}
	.st5{fill:#FF001C;}
	.st6{fill:#333333;}
</style>
<g>
	<circle class="st0" cx="50" cy="50.3" r="49"/>
</g>
<g>
	<path class="st1" d="M29.9,50c0-0.4,0-0.7,0-1.1c0-0.6-0.4-1-1-1H8.2c-0.5,0-1,0.4-1,1v2.9c0,0.5,0.4,1,1,1H29c0.6,0,1-0.5,1-1
		C29.9,51.1,29.9,50.6,29.9,50z"/>
	<path class="st1" d="M72.6,47.9c-0.6,0-1,0.5-1,1c0,0.3,0,0.7,0,1.1c0,0.6,0,1.1-0.1,1.7c-0.1,0.6,0.4,1,1,1h19.3c0.5,0,1-0.4,1-1
		v-2.9c0-0.5-0.4-1-1-1H72.6z"/>
</g>
<g class="st2">
	<circle class="st3" cx="50" cy="50.3" r="29"/>
</g>
<g>
	<g>
		<path class="st4" d="M50,79.3c-14.1,0-25.8-10-28.5-23.3c-0.1-0.5-0.5-0.8-0.9-0.8h-12c-0.6,0-1,0.5-1,1.1
			C10.5,77.1,28.4,93.1,50,93.1s39.5-16,42.4-36.8c0.1-0.6-0.4-1.1-1-1.1h-12c-0.5,0-0.8,0.3-0.9,0.8C75.8,69.3,64.1,79.3,50,79.3z"
			/>
	</g>
	<g>
		<path class="st5" d="M50,21.3c13.9,0,25.5,9.7,28.3,22.7c0.1,0.4,0.5,0.7,0.9,0.7h12.1c0.6,0,1-0.5,0.9-1.1
			C89.1,23.2,71.4,7.5,50,7.5S10.9,23.2,7.7,43.7c-0.1,0.6,0.4,1.1,0.9,1.1h12.1c0.4,0,0.8-0.3,0.9-0.7C24.5,31,36.1,21.3,50,21.3z"
			/>
	</g>
</g>
<g>
	<path class="st0" d="M50,68.9c-10.4,0-18.9-8.5-18.9-18.9c0-10.4,8.5-18.9,18.9-18.9c10.4,0,18.9,8.5,18.9,18.9
		C68.9,60.4,60.4,68.9,50,68.9z"/>
	<path class="st6" d="M50,34.6c8.5,0,15.4,6.9,15.4,15.4S58.5,65.4,50,65.4S34.6,58.5,34.6,50S41.5,34.6,50,34.6 M50,27.6
		c-12.4,0-22.4,10-22.4,22.4s10,22.4,22.4,22.4s22.4-10,22.4-22.4S62.4,27.6,50,27.6L50,27.6z"/>
</g>
</svg>
